<svg id="Layer_1" data-name="Layer 1" xmlns="http://www.w3.org/2000/svg" viewBox="0 0 115.68 115.68"><defs><style>.cls-1{fill:#666;}.cls-2{fill:#969696;}.cls-3{fill:#aeaeae;}.cls-4{fill:#fefefe;}</style></defs><title>cellphone</title><path class="cls-1" d="M450.37,372.19c-17.2-2.75-31.8-11.07-45-21.88-17.72-14.51-31.31-32.14-38.5-54.21-1-3-1.58-6.17-2.36-9.25v-1.54a6.59,6.59,0,0,0,0-4.12v-1c.42-5.11,2.89-9.1,6.65-12.47a93.83,93.83,0,0,0,6.69-6.69,12.48,12.48,0,0,1,8.26-4.49h3.6c3.65,1,6.38,3.39,9,6,3.88,4,7.87,7.87,11.76,11.85,5.66,5.78,5.64,12.05,0,17.8-2.28,2.32-4.51,4.69-6.93,6.86-1.19,1.06-1.22,1.85-.53,3.18,4.42,8.48,10.76,15.38,17.75,21.73a62.66,62.66,0,0,0,14,9.86,2,2,0,0,0,2.79-.49c2.49-2.6,5-5.15,7.63-7.62,5.15-4.87,11.32-4.81,16.4.17,4.88,4.8,9.69,9.67,14.54,14.5a13,13,0,0,1,3.72,6.59c.39,1.07.1,2.17.19,3.24a9.07,9.07,0,0,1-2.65,7c-3.21,3.43-6.6,6.68-9.83,10.1a16.07,16.07,0,0,1-11.42,4.9Z" transform="translate(-364.51 -256.51)"/><path class="cls-2" d="M364.51,281.19a3.65,3.65,0,0,1,0,4.12Z" transform="translate(-364.51 -256.51)"/><path class="cls-3" d="M480.19,350.6l-.2.06-.22,0,0-3.67a2.27,2.27,0,0,0,.45,0Z" transform="translate(-364.51 -256.51)"/><path class="cls-4" d="M370.63,283.7c-.38-4.31,1.32-8.11,4.71-11.31,2.68-2.52,5.21-5.21,7.85-7.77,3.2-3.11,5.95-3.14,9.13,0q7.14,7,14.16,14.18c3.15,3.2,3.14,5.84,0,9.11-2.56,2.64-5.2,5.2-7.85,7.76-2.92,2.82-3.24,4.19-1.5,7.93,4,8.59,10.16,15.58,16.84,22.12a77.13,77.13,0,0,0,19.66,14.2c2.53,1.26,4.54,1,6.47-.94,2.84-2.85,5.67-5.72,8.55-8.53,3.39-3.32,5.84-3.3,9.22.06q6.93,6.87,13.82,13.79c3.27,3.31,3.37,6,.23,9.37-2.91,3.13-5.87,6.23-9,9.18-4.55,4.33-10.07,4.11-15.67,2.89-12.93-2.83-24.22-9.15-34.59-17.05-18-13.69-31.75-30.67-39.54-52.13A36.19,36.19,0,0,1,370.63,283.7Z" transform="translate(-364.51 -256.51)"/></svg>