<svg id="Layer_1" data-name="Layer 1" xmlns="http://www.w3.org/2000/svg" viewBox="0 0 80.56 119.86"><defs><style>.cls-1{fill:#666;}.cls-2{fill:#79bdef;}.cls-3{fill:#fefefe;}</style></defs><title>destination</title><path class="cls-1" d="M539.08,277.26a7.81,7.81,0,0,0,2.89.66c10.87,2.24,19.17,8.29,25.35,17.34a46.75,46.75,0,0,1,8,23.31,49,49,0,0,1-8.63,31.94q-15.48,22.89-30.78,45.91c-.57.86-.82,1-1.47,0q-15.49-23.2-31.07-46.35a48.17,48.17,0,0,1-8.42-25.32c-.57-13.66,3.53-25.68,13-35.62a37.09,37.09,0,0,1,21.64-11.44c.54-.09,1.16,0,1.59-.47H533a17.18,17.18,0,0,0,4.75,0Z" transform="translate(-494.87 -277.26)"/><path class="cls-2" d="M537.76,277.26a8.81,8.81,0,0,1-4.75,0Z" transform="translate(-494.87 -277.26)"/><path class="cls-3" d="M535.16,294.37a22.48,22.48,0,1,1-22.51,22.44A22.34,22.34,0,0,1,535.16,294.37Z" transform="translate(-494.87 -277.26)"/></svg>