<svg id="Layer_1" data-name="Layer 1" xmlns="http://www.w3.org/2000/svg" viewBox="0 0 85.32 57.95"><defs><style>.cls-1{fill:#666;}.cls-2{fill:#fff;}</style></defs><title>email</title><path class="cls-1" d="M392.23,263.15a1.94,1.94,0,0,1,1.08-.2h78.37a3.12,3.12,0,0,1,3.13,1.82,3,3,0,0,1,.29,1.36v51.1a3,3,0,0,1-1,2.42,3.07,3.07,0,0,1-.91.52c-.14,0-.24.08-.35.12a1.2,1.2,0,0,1-.38,0l-.17,0a5.77,5.77,0,0,0-.72,0h-78.1a.66.66,0,0,1-.24,0c-.13-.08-.27-.18-.42,0a.31.31,0,0,1-.13,0,2.25,2.25,0,0,1-.58-.08,3,3,0,0,1-1.88-2.89c0-.29,0-.58,0-.87V266.19a3,3,0,0,1,1.13-2.55A3.41,3.41,0,0,1,392.23,263.15Z" transform="translate(-390.23 -262.94)"/><path class="cls-1" d="M473.14,320.12l1-.48a2.76,2.76,0,0,1-2.08.85H393.47a2.77,2.77,0,0,1-1.36-.27h.71a1.46,1.46,0,0,0,.66.07,3.85,3.85,0,0,1,.68,0H471.5a3.78,3.78,0,0,0,1.06,0H473A.23.23,0,0,1,473.14,320.12Z" transform="translate(-390.23 -262.94)"/><path class="cls-1" d="M472.33,320.89H392.75v-.05h79.6Z" transform="translate(-390.23 -262.94)"/><path class="cls-1" d="M475.55,266.38v51h-.05v-51Z" transform="translate(-390.23 -262.94)"/><path class="cls-1" d="M392.23,263.15a3.37,3.37,0,0,1-.87.49A1.18,1.18,0,0,1,392.23,263.15Z" transform="translate(-390.23 -262.94)"/><path class="cls-2" d="M396.42,266.72c-.11-.23-.53-.34-.43-.57s.47-.08.72-.08h72c.24,0,.61-.12.68.07s-.28.37-.46.54l-4.65,4.38c-.51.48-1,1-1.51,1.48a.52.52,0,0,1-.47.46,26.83,26.83,0,0,0-2.16,2c-.22.2-.43.42-.65.63a30.47,30.47,0,0,1-2.61,2.47l-3.76,3.53-7.25,6.81c-1.54,1.45-3.07,2.89-4.6,4.35a29.3,29.3,0,0,0-2.11,2.06c-.76.73-1.52,1.46-2.3,2.17-.14.13-.25.3-.45.35l-.35.41c-.09.11-.16.23-.31.27h0c-.64.56-1.16,1.24-1.85,1.74a.84.84,0,0,1-.21.11,2.07,2.07,0,0,1-2.62-.53c-1-.92-2-1.84-2.95-2.76-.71-.62-1.42-1.25-2.09-1.92a4.88,4.88,0,0,0-.74-.69c-1.24-1.34-2.61-2.55-4-3.78-.7-.63-1.41-1.24-2.07-1.91a3.06,3.06,0,0,0-.46-.42c-3.17-3.18-6.5-6.19-9.76-9.28-.93-.88-1.88-1.76-2.82-2.63-.54-.4-.94-.94-1.46-1.36a2.32,2.32,0,0,0-.59-.58h-.06c-.51-.44-1-.88-1.51-1.35a1.54,1.54,0,0,0-.49-.39,1.78,1.78,0,0,1-.63-.59,3.45,3.45,0,0,0-.52-.56l-.1-.09c-.75-.68-1.43-1.44-2.24-2a.51.51,0,0,1-.23-.23.56.56,0,0,0-.21-.27l-.09-.07a1.93,1.93,0,0,0-.28-.22.88.88,0,0,1-.21-.22,1.88,1.88,0,0,0-.33-.36l-.09-.09c-.22-.23-.45-.45-.69-.68A.37.37,0,0,1,396.42,266.72Z" transform="translate(-390.23 -262.94)"/><path class="cls-2" d="M398,316l4.81-4.18,14.84-12.75,3.9-3.39c.07-.07.15-.12.22-.18.42-.39.47-.38.84.07q2.31,2.19,4.63,4.37c.81.76,1.58,1.56,2.44,2.26a4.25,4.25,0,0,0,.39.25,8,8,0,0,1,1.05.44,5.36,5.36,0,0,0,3.82-.24,5,5,0,0,0,1.66-1.21q3.17-3,6.31-6c.29-.27.45-.23.72,0,1.25,1.11,2.52,2.2,3.79,3.29.16.13.31.28.47.4l7.33,6.3L466.26,315l2.52,2.18c0,.1,0,.14-.14.15H397.19a1.58,1.58,0,0,1-.6-.05c.14-.26.41-.39.57-.61l.29-.27A1.69,1.69,0,0,0,398,316Z" transform="translate(-390.23 -262.94)"/><path class="cls-2" d="M457.35,303.26l-6.55-5.64-5-4.3c-.21-.18-.29-.3,0-.52a6.64,6.64,0,0,0,.74-.76c.86-.86,1.77-1.67,2.64-2.52a1.4,1.4,0,0,1,.38-.3c1.33-1.24,2.67-2.47,4-3.72,2.17-2,4.33-4.1,6.5-6.15.06-.05.1-.12.16-.18.31-.3.6-.63.94-.9l.5-.5c.57-.42,1-1,1.57-1.43l4.27-4,4.19-4c.08-.07.15-.21.28-.14s.06.2.06.3v46.65a.85.85,0,0,1-.08.54l-14.19-12.18A2.11,2.11,0,0,0,457.35,303.26Z" transform="translate(-390.23 -262.94)"/><path class="cls-2" d="M418.48,294.25c-1.09.93-2.19,1.85-3.27,2.78q-5.94,5.09-11.85,10.18l-7.69,6.63-1.91,1.63c-.1.09-.19.22-.33.15s-.06-.21-.06-.31c0-.89,0-1.78,0-2.67V268.53c0-.09,0-.21.08-.26s.17.06.24.12l1.18,1.15c.35.26.6.63,1,.88l.18.1a1.15,1.15,0,0,1,.49.51.07.07,0,0,0,.08.08,8.3,8.3,0,0,1,1,.88c1.06,1.13,2.22,2.17,3.38,3.19H401a3,3,0,0,1,.54.47l.09.09a12.22,12.22,0,0,0,1.29,1.2c.15.18.38.3.44.55l6.17,5.84,6.21,5.88c1.27,1.2,2.54,2.41,3.84,3.59.28.26.1.37,0,.54a1.29,1.29,0,0,1-.37.33h0A6.42,6.42,0,0,1,418.48,294.25Z" transform="translate(-390.23 -262.94)"/><path class="cls-1" d="M403.37,277.49a1.35,1.35,0,0,1-.48-.47,13.64,13.64,0,0,0-1.37-1.26h0c-.19-.26.31-.33.15-.58a.09.09,0,0,0-.06-.06s0,0,0,0c0,.42-.28.21-.46.17s-.15-.12-.24-.15h0a14.57,14.57,0,0,0-2-2,.69.69,0,0,1-.23-.88c-.55,0-.73-.58-1.19-.83.34-.08.42-.16.33-.52s-.4-.69.12-1c.16-.08,0-.22-.11-.2-.5.05-1-.2-1.49.18-.22.19-.3-.1-.47-.15.18-.25.5.13.61-.26-.32.07-.59-.15-.92,0a.42.42,0,0,1,.49-.37c.39,0,.47-.19.49-.49s-.14-.62.16-.88c.07-.06,0-.1-.07-.14s-.1-.08-.15,0-.15.12-.16.23c0,.28-.05.61-.42.2-.73.21-.89-.22-1.06-.82a1.93,1.93,0,0,1-.13-1.29.38.38,0,0,0,0-.41.53.53,0,0,1-.11-.36c0-.12,0-.25.18-.24s.1.14.11.23,0,.12.09.14a.2.2,0,0,0,.08,0c.07-.11,0-.32.16-.36a.19.19,0,0,1,.22.14.37.37,0,0,1-.17.46c-.09.07-.29,0-.25.23a.11.11,0,0,0,.09.09c.16,0,.23-.09.28-.21s.46-.29.27-.68c-.07-.16.25-.18.4-.08s.37.21.58,0,.37-.07.56-.07h72c.73,0,1,.37.7,1.07a1,1,0,0,0,0,.18,1.43,1.43,0,0,0-1.12-.19,3.09,3.09,0,0,1-.43,0H396.1c-.13,0-.3-.11-.36.11a.35.35,0,0,0,.14.42,2.2,2.2,0,0,1,.33.35l0,0s0,0,0,0l.21,0h0c0,.07.15.1.09.21a.4.4,0,0,0-.09.21c0-.07,0-.15.09-.2.37,0,.47.43.77.57h0c.11.18,0,.31-.13.4a.16.16,0,0,1-.08-.05c0-.05,0-.11-.05-.17a.2.2,0,0,0,.07.2.59.59,0,0,1,.4.21c.16.24.16.24-.05.39,0,0,0,0,0,0h0c.08,0,.16,0,.23,0s-.19-.27-.26-.43.05-.23.22-.14l.21.21a.53.53,0,0,0,.31.26h0c.09.11.21.2.29.32l.18.18c.32.27.6.57.9.86s.35.38.07.64-.12.25,0,.43a.47.47,0,0,1,.29-.48c.23-.1.38.05.45.23s-.09.2-.24.18,0,.11-.11.14l0,0,0,0c.24.05.54-.26.72.13-.11.15-.23.31-.11.51a.2.2,0,0,1-.09.28,1.14,1.14,0,0,0-.15.23c.06-.08.1-.16.15-.24.25-.13.41-.28.16-.56a.17.17,0,0,1,0-.22.14.14,0,0,1,.19,0h0a2.25,2.25,0,0,0,.57.58l.59.57c.26.24.52.48.76.73s.25.23.13.42-.25,0-.38,0c0,.23.18.12.28.12s.08.05.06,0l.07-.08c.15-.17.25,0,.36.06a9.59,9.59,0,0,0,.75.68h0l.13.37c-.3.07-.36-.5-.71-.27a.41.41,0,0,0-.16-.16c-.05,0,0,.11,0,.05s0,0,0,0a.53.53,0,0,1,.13.13c-.21.23.09.36.15.62-.39-.26-.67,0-1,.07s-.3.23-.06.35.46.29.42.62a.13.13,0,0,0,.14.16.19.19,0,0,0,.19-.11c.16-.41.27-.26.39,0a.23.23,0,0,0,.13.14c.35.17.35.45.31.79-.05.52.25.73.75.54.18-.07.31-.09.42.08a.46.46,0,0,1,0,.5c-.12.17-.31.11-.47,0s-.44-.17-.52.2-.21.12-.34,0S403.74,277.56,403.37,277.49Z" transform="translate(-390.23 -262.94)"/><path class="cls-1" d="M472.66,263.23H392.59C392.88,263,472.16,263,472.66,263.23Z" transform="translate(-390.23 -262.94)"/><path class="cls-1" d="M472.56,320.22c-.08.18-.24.2-.41.19H393.51c-.24,0-.53.12-.69-.19h0a.21.21,0,0,1,.29,0h.19a1.06,1.06,0,0,1,.53,0h78.11a1,1,0,0,1,.52,0Z" transform="translate(-390.23 -262.94)"/><path class="cls-1" d="M472.46,320.22H393.3c.15-.16.34-.09.51-.09H472C472.13,320.13,472.32,320.06,472.46,320.22Z" transform="translate(-390.23 -262.94)"/><path class="cls-1" d="M397.16,316.7c-.05.27-.34.36-.48.61h71.45c.22,0,.46.09.65-.09.15.11.06.16,0,.17a5.61,5.61,0,0,1-.58,0H396.84c-.13,0-.26.05-.41-.11Z" transform="translate(-390.23 -262.94)"/><path class="cls-1" d="M468.87,317.51c.06,0,.14,0,.13.07s-.08.08-.13.12a1,1,0,0,1-.52.05H396.93a1.06,1.06,0,0,1-.53-.05v-.1a1.45,1.45,0,0,1,.62,0h71.23A1.3,1.3,0,0,0,468.87,317.51Z" transform="translate(-390.23 -262.94)"/><path class="cls-1" d="M468.87,317.51c-.14.16-.33.09-.5.09h-72c.1-.18.27-.09.4-.09h72.07Z" transform="translate(-390.23 -262.94)"/><path class="cls-1" d="M396.4,317.7h72.47c-.14.16-.33.1-.5.1H396.9C396.73,317.8,396.55,317.86,396.4,317.7Z" transform="translate(-390.23 -262.94)"/><path class="cls-1" d="M390.48,318.16V265.22h.08v52.94Z" transform="translate(-390.23 -262.94)"/><path class="cls-1" d="M393,315.73V268.22h.05v47.53Z" transform="translate(-390.23 -262.94)"/><ellipse class="cls-1" cx="81.99" cy="29.03" rx="0.03" ry="33.62"/><path class="cls-1" d="M434.89,302.69a4.78,4.78,0,0,1-4.87-.2c.24-.11.38.09.56.17a5.16,5.16,0,0,0,3.9.12A.85.85,0,0,1,434.89,302.69Z" transform="translate(-390.23 -262.94)"/><path class="cls-1" d="M449.52,289.22c-1,1-2,1.93-3,2.82a11,11,0,0,1,1.29-1.35c.43-.44.91-.85,1.36-1.27C449.26,289.32,449.35,289.2,449.52,289.22Z" transform="translate(-390.23 -262.94)"/><path class="cls-1" d="M425.27,294c.43.15.65.55,1,.83.65.56,1.24,1.18,1.86,1.78-.07,0-.17,0-.22-.07A34.71,34.71,0,0,1,425.27,294Z" transform="translate(-390.23 -262.94)"/><path class="cls-1" d="M436.38,297.34l2.55-2.42a.25.25,0,0,1,.2-.1,29.38,29.38,0,0,1-2.52,2.47C436.56,297.33,436.46,297.32,436.38,297.34Z" transform="translate(-390.23 -262.94)"/><path class="cls-1" d="M418.78,287.85a15.15,15.15,0,0,1,1.75,1.55c.28.24.52.52.78.78-.36,0-.52-.31-.74-.54A25.19,25.19,0,0,1,418.78,287.85Z" transform="translate(-390.23 -262.94)"/><path class="cls-1" d="M456.85,278.07c.83-.87,1.73-1.66,2.61-2.47a7.34,7.34,0,0,1-1.62,1.67C457.52,277.54,457.31,278,456.85,278.07Z" transform="translate(-390.23 -262.94)"/><path class="cls-1" d="M462.27,273a1.38,1.38,0,0,1,.47-.46,1.23,1.23,0,0,0,.62-.43c.12.12,0,.2,0,.26s-.43.24-.28.54c-.33-.11-.42.06-.46.36,0,.09-.19-.07-.3,0h0Z" transform="translate(-390.23 -262.94)"/><path class="cls-1" d="M433.67,299.86l2.06-1.85A6.2,6.2,0,0,1,433.67,299.86Z" transform="translate(-390.23 -262.94)"/><path class="cls-1" d="M462.29,273.23l-.25.35-.09.15c.44.23,0,.41-.06.62,0-.25-.33-.45-.27-.55a1,1,0,0,1,.67-.57Z" transform="translate(-390.23 -262.94)"/><path class="cls-1" d="M463.18,276.34a8.53,8.53,0,0,1-1.57,1.43A5.79,5.79,0,0,1,463.18,276.34Z" transform="translate(-390.23 -262.94)"/><path class="cls-1" d="M404.74,274.58a9.38,9.38,0,0,1,1.46,1.36c-.33,0-.47-.32-.66-.51A4.3,4.3,0,0,1,404.74,274.58Z" transform="translate(-390.23 -262.94)"/><path class="cls-1" d="M422.56,295.61c-.41-.53-.72-.07-1.06.11,0-.14.14-.21.23-.29C422.15,295,422.3,295.08,422.56,295.61Z" transform="translate(-390.23 -262.94)"/><path class="cls-1" d="M397.56,272a5.94,5.94,0,0,1-1-.88A2.12,2.12,0,0,1,397.56,272Z" transform="translate(-390.23 -262.94)"/><path class="cls-1" d="M461.11,278.27a4.71,4.71,0,0,1-.94.9A2.27,2.27,0,0,1,461.11,278.27Z" transform="translate(-390.23 -262.94)"/><path class="cls-1" d="M395.82,270.42a2.54,2.54,0,0,1-1-.88A3.35,3.35,0,0,1,395.82,270.42Z" transform="translate(-390.23 -262.94)"/><path class="cls-1" d="M418.48,294.25a1.76,1.76,0,0,1,.69-.58A1.08,1.08,0,0,1,418.48,294.25Z" transform="translate(-390.23 -262.94)"/><path class="cls-1" d="M398,316a.49.49,0,0,1-.5.39A1.28,1.28,0,0,1,398,316Z" transform="translate(-390.23 -262.94)"/><path class="cls-1" d="M396.49,271a2,2,0,0,1-.49-.51A.53.53,0,0,1,396.49,271Z" transform="translate(-390.23 -262.94)"/><path class="cls-1" d="M447.84,299.2a.68.68,0,0,1-.47-.4A.78.78,0,0,1,447.84,299.2Z" transform="translate(-390.23 -262.94)"/><path class="cls-1" d="M474.74,265a.63.63,0,0,1,0,.47C474.65,265.35,474.68,265.23,474.74,265Z" transform="translate(-390.23 -262.94)"/><path class="cls-1" d="M393.11,320.22h-.29c.06-.12.14-.23.29-.17S393.12,320.16,393.11,320.22Z" transform="translate(-390.23 -262.94)"/><path class="cls-1" d="M419.17,293.67a.63.63,0,0,1,.37-.33A.37.37,0,0,1,419.17,293.67Z" transform="translate(-390.23 -262.94)"/><path class="cls-1" d="M457.35,303.26a.46.46,0,0,1,.36.31A.49.49,0,0,1,457.35,303.26Z" transform="translate(-390.23 -262.94)"/><path class="cls-1" d="M473.14,320.12c0,.08-.11.09-.19.09s-.09-.12,0-.16A.15.15,0,0,1,473.14,320.12Z" transform="translate(-390.23 -262.94)"/><path class="cls-1" d="M435.72,298a.52.52,0,0,1,.31-.27C436,297.94,435.92,298,435.72,298Z" transform="translate(-390.23 -262.94)"/><path class="cls-1" d="M401,271h-.2c-.23-.22-.53,0-.77-.1.09-.1,0-.44.36-.22,0-.21-.12-.36-.31-.31s-.35.06-.2.31c.05.1-.09.2-.15.22s-.21-.11-.3-.18a.22.22,0,0,1,0-.35c.53-.34.11-.53-.09-.78s-.54-.41-.68-.73a8.62,8.62,0,0,1,1.44,1.26A10.55,10.55,0,0,1,401,271Z" transform="translate(-390.23 -262.94)"/><path class="cls-1" d="M404.15,274c-.36-.05-.48-.42-.76-.58-.13-.08-.23-.22-.4-.09,0-.39-.31-.53-.52-.75s-.3-.23-.35-.43a8.48,8.48,0,0,1,1.46,1.28A6.13,6.13,0,0,1,404.15,274Z" transform="translate(-390.23 -262.94)"/><path class="cls-1" d="M397.08,267.9a.52.52,0,0,0,.19-.38.71.71,0,0,1,.38.38.17.17,0,0,0-.18.19A.49.49,0,0,1,397.08,267.9Z" transform="translate(-390.23 -262.94)"/><path class="cls-1" d="M397.27,267.51c-.36-.05-.47-.44-.77-.58h0l-.09-.21A4.3,4.3,0,0,1,397.27,267.51Z" transform="translate(-390.23 -262.94)"/><path class="cls-1" d="M401.53,271.58A.74.74,0,0,1,401,271,2,2,0,0,1,401.53,271.58Z" transform="translate(-390.23 -262.94)"/><path class="cls-1" d="M398.45,268.68a.49.49,0,0,1-.29-.32A.4.4,0,0,1,398.45,268.68Z" transform="translate(-390.23 -262.94)"/><path class="cls-1" d="M398.17,268.37a.25.25,0,0,1-.31-.26A.57.57,0,0,1,398.17,268.37Z" transform="translate(-390.23 -262.94)"/><path class="cls-1" d="M400.94,275.18a1.67,1.67,0,0,0,.66.08c0-.15-.2-.15-.21-.3.19,0,.29.11.39.22s.21.13,0,.23a.5.5,0,0,0-.28.35A2,2,0,0,1,400.94,275.18Z" transform="translate(-390.23 -262.94)"/><path class="cls-1" d="M401.52,275.76a3.53,3.53,0,0,1,1.37,1.26A9.61,9.61,0,0,1,401.52,275.76Z" transform="translate(-390.23 -262.94)"/><path class="cls-1" d="M469.76,265.72a13.53,13.53,0,0,0-2.66-.15h-70a1.68,1.68,0,0,0-1,.14c-.14.09-.21-.16-.35-.27a9.81,9.81,0,0,1,1.3-.16h70c.25,0,.52.07.74-.13a.19.19,0,0,1,.27,0c.26.31.61.24.94.23A.81.81,0,0,1,469.76,265.72Z" transform="translate(-390.23 -262.94)"/><path class="cls-1" d="M401.94,274.18c-.23,0-.45,0-.67-.09s-.32-.15-.21-.39a2.5,2.5,0,0,1,.72-.83c0,.11.53-.36.22.18-.08.13.12.15.19.23s.13.49.09.73S402.09,274.2,401.94,274.18Z" transform="translate(-390.23 -262.94)"/><path class="cls-1" d="M400.57,271.78c0-.08.08-.16,0-.23-.32-.31-.06-.42.18-.55h0c0,.06,0,.14.06.18C401.22,271.58,401,271.72,400.57,271.78Z" transform="translate(-390.23 -262.94)"/><path class="cls-1" d="M399.46,271.81c-.22-.12-.62.12-.66-.21s.35-.09.53-.11.35,0,.34.24S399.55,271.83,399.46,271.81Z" transform="translate(-390.23 -262.94)"/><path class="cls-1" d="M400.27,273.62c0,.28,0,.54.49.61-.42,0-1.14-.51-1.13-.72a.21.21,0,0,1,.12-.14c.11,0,.05.08.07.13C399.91,273.77,400,273.9,400.27,273.62Z" transform="translate(-390.23 -262.94)"/><path class="cls-1" d="M397.49,268.1l.13.1c.08.1.23.16.2.31s-.12.11-.23.09-.39.09-.52-.11,0-.16.12-.19.23.17.39.14S397.4,268.24,397.49,268.1Z" transform="translate(-390.23 -262.94)"/><path class="cls-1" d="M403,273.33v.09c-.19-.14-.15.42-.35.12-.05-.08-.29-.21-.1-.39S402.79,273.4,403,273.33Z" transform="translate(-390.23 -262.94)"/><path class="cls-1" d="M398.76,269.46a1.78,1.78,0,0,1-.71-.77l.84.7Z" transform="translate(-390.23 -262.94)"/><path class="cls-1" d="M400.58,271.76c0,.23,0,.42-.24.48a.11.11,0,0,1-.14-.1C400.18,271.88,400.43,271.88,400.58,271.76Z" transform="translate(-390.23 -262.94)"/><path class="cls-1" d="M401,274.78a1,1,0,0,1-.2-.11c-.06-.06-.18-.1-.13-.22a.16.16,0,0,1,.19-.09c.11,0,.2.1.17.24l0,.18Z" transform="translate(-390.23 -262.94)"/><path class="cls-1" d="M403.41,276.77a.33.33,0,0,1,.18.52A.45.45,0,0,1,403.41,276.77Z" transform="translate(-390.23 -262.94)"/><path class="cls-1" d="M404.2,277.34v.5C403.9,277.62,403.9,277.62,404.2,277.34Z" transform="translate(-390.23 -262.94)"/><path class="cls-1" d="M402.63,276.17c0,.08-.06.15-.11.12a.52.52,0,0,1-.23-.21c0-.06.09-.18.12-.15A1.26,1.26,0,0,1,402.63,276.17Z" transform="translate(-390.23 -262.94)"/><path class="cls-1" d="M396.5,266.93l.05.41a.26.26,0,0,1-.3-.17c0-.16.15-.17.25-.24Z" transform="translate(-390.23 -262.94)"/><path class="cls-1" d="M398.27,269.8c-.1,0-.12-.09-.12-.17s.05-.16.14-.16.14.07.13.16A.2.2,0,0,1,398.27,269.8Z" transform="translate(-390.23 -262.94)"/><path class="cls-1" d="M397,267.91a4.73,4.73,0,0,0-.28-.44A.32.32,0,0,1,397,267.91Z" transform="translate(-390.23 -262.94)"/><path class="cls-1" d="M401.94,272.45a1.31,1.31,0,0,1-.49-.5A.81.81,0,0,1,401.94,272.45Z" transform="translate(-390.23 -262.94)"/><path class="cls-1" d="M399.42,273.22a.42.42,0,0,1-.39-.34C399.26,272.91,399.26,273.07,399.42,273.22Z" transform="translate(-390.23 -262.94)"/><path class="cls-1" d="M402.91,276.55c.21.05.23.2.38.36A.42.42,0,0,1,402.91,276.55Z" transform="translate(-390.23 -262.94)"/><path class="cls-1" d="M400,271c0,.09,0,.15-.11.15a.12.12,0,0,1-.12-.11c0-.1.05-.14.13-.16S400,271,400,271Z" transform="translate(-390.23 -262.94)"/><path class="cls-1" d="M396.21,266.74a.4.4,0,0,1-.26.35c-.06-.26.14-.27.26-.35Z" transform="translate(-390.23 -262.94)"/><path class="cls-1" d="M395.53,266.17s0,.11,0,.11a.19.19,0,0,1-.18-.14.13.13,0,0,1,.06-.11C395.46,266,395.49,266.09,395.53,266.17Z" transform="translate(-390.23 -262.94)"/><path class="cls-1" d="M400.38,273.39c0,.05.11.1.13.16a.09.09,0,0,1-.1.11c-.07,0-.16,0-.13-.13S400.26,273.39,400.38,273.39Z" transform="translate(-390.23 -262.94)"/><path class="cls-1" d="M403.6,274.11l-.45-.19C403.34,273.88,403.51,273.89,403.6,274.11Z" transform="translate(-390.23 -262.94)"/><path class="cls-1" d="M402.41,274.42c0,.05-.05.11-.08.11s-.1,0-.09-.1,0-.08.07-.08S402.37,274.39,402.41,274.42Z" transform="translate(-390.23 -262.94)"/><path class="cls-1" d="M398.81,269.44c.18.05.25.12.22.26C398.89,269.67,398.89,269.54,398.81,269.44Z" transform="translate(-390.23 -262.94)"/><path class="cls-1" d="M401,274.78c.06,0,.14-.09.17,0s0,.11-.05.11-.11-.07-.12-.14Z" transform="translate(-390.23 -262.94)"/><path class="cls-1" d="M402.25,272.68s.08.05.08.08-.07.08-.12.08-.1.05-.09,0S402.16,272.68,402.25,272.68Z" transform="translate(-390.23 -262.94)"/><path class="cls-1" d="M403.26,273.55c-.08,0-.13.06-.15.05a.23.23,0,0,1-.11-.13c0-.1.07,0,.08,0A1.46,1.46,0,0,1,403.26,273.55Z" transform="translate(-390.23 -262.94)"/></svg>