<svg id="Layer_1" data-name="Layer 1" xmlns="http://www.w3.org/2000/svg" viewBox="0 0 274.27 274.14"><defs><style>.cls-1{fill:#303030;}.cls-2{fill:#313131;}.cls-3{fill:#2e2e2e;}.cls-4{fill:#2f2f2f;}.cls-5{fill:#212121;}.cls-6{fill:#222;}.cls-7{fill:#fefefe;}.cls-8{fill:#fdfdfd;}.cls-9{fill:#f6f6f6;}.cls-10{fill:#f7f7f7;}.cls-11{fill:#282828;}.cls-12{fill:#e6e6e6;}.cls-13{fill:#45be99;}.cls-14{fill:#252525;}.cls-15{fill:#1e1e1e;}.cls-16{fill:#202020;}</style></defs><title>magnify</title><path class="cls-1" d="M804.68,559.1a7.14,7.14,0,0,1-.87-.77c-1.15-1.45-2.19-2.43-4.45-1.72-2.57.81-5.42-1.06-6.72-3.68A5.92,5.92,0,0,1,794,546.1c2.73-2.86,2.73-2.86-.11-5.7-4.84-4.84-9.71-9.65-14.51-14.54-.9-.91-1.48-1.09-2.29,0a11,11,0,0,1-1.56,1.57,6,6,0,0,1-8.23.4,1.61,1.61,0,0,0-2.24-.11A88.89,88.89,0,0,1,728.73,540a84.19,84.19,0,0,1-29-1.4.61.61,0,0,1,.51-.25c.2,0,.26,0,.2,0-2.71.1-5.1-1.56-7.81-1.44A84.9,84.9,0,0,1,661.74,521a90.42,90.42,0,0,1-33.11-53.86,5.29,5.29,0,0,1,0-.8,1.2,1.2,0,0,0,.14-.72c0-.16.06-.33,0-.49a.55.55,0,0,1-.21.49,73.41,73.41,0,0,1-1.44-21.41c2.26-31.35,16.75-55.54,43.07-72.6a83.14,83.14,0,0,1,29.94-11.89c24.5-4.64,47.46-.58,68.31,13.21s34.19,33.11,39.26,57.71c4.7,22.8,1.15,44.44-10.5,64.66-.72,1.24-1.08,2.1,0,3.46a5.78,5.78,0,0,1-.33,7.27,8.88,8.88,0,0,1-1.53,1.59c-1.36,1-1.56,1.95-.2,3.06-.63,1.73-2.42.93-3.52,1.62-3.07,2.8-6,5.78-8.86,8.75-1,1-1,1.7,0,2.68,5,4.9,9.86,9.88,14.83,14.77,1.67,1.64,1.88,1.6,3.57-.07s3.5-3.52,5.27-5.26c.56-.55,1-1.24,2-1.3a1,1,0,0,1,.52.28c1.7,1.59,1.8,2.15-.27,3.13-1.54.73-1.75,2.31-3,3.22a19.22,19.22,0,0,0-6.13,7.43A14.42,14.42,0,0,1,797,548.8c-.9,1-1.05,2,0,3a2.16,2.16,0,0,0,3.08.15,12.74,12.74,0,0,0,1.31-1.24q7.36-7.37,14.75-14.74c.65-.64,1.2-1.45,2.21-1.64,1,.2,2,.31,1.15,1.75-.37.64.56.79.71,1.27,0,1-.79,1.51-1.38,2.11q-6.16,6.19-12.36,12.37a9.2,9.2,0,0,0-1.77,2.16c-.73.44-1.06,1-.23,1.6a4.11,4.11,0,0,1,1.55,2.26C806.31,559.07,805.94,559.5,804.68,559.1Z" transform="translate(-626.83 -357.88)"/><path class="cls-2" d="M820.16,537.37c-1.15-.26-2.45-.31-.88-2,.6-.63-1-.36-.93-1.08.09-1.14,1-1.67,1.72-2.37,2-2.12,2-3-.3-4.87a2.18,2.18,0,0,1-.38-.47,3.56,3.56,0,0,0-1.67-1.37c-.35-.2-.71-.45-.66-.91s.57-.61,1-.78c.77-.29,1.6,0,2.35-.31,3.83.87,6.25,4.45,5.05,7.92-.48,1.38.09,1.93.86,2.7l57.24,57.23c2.27,2.28,4.68,4.44,6.78,6.88a2.8,2.8,0,0,0,3.12.79c2.7-.59,4.58,0,6.44,2.52a5.42,5.42,0,0,1,.17,6.56,3.32,3.32,0,0,0-.62,3.09,16.51,16.51,0,0,1-19.77,19.49,2.45,2.45,0,0,0-2.37.3c-3.74,2.82-8.7.77-9.74-3.92a18.81,18.81,0,0,0,.08-2.81c.59-1.15.05-1.88-.78-2.72q-30.79-30.69-61.51-61.46c-.24-.24-.46-.49-.69-.73.3-.33,1.27-.19,1.05-.5-.5-.74-.15-1.84-1.2-2.35-1.26-.61-1.54-1.51-.21-2.44,1.28-.06,1.81,1,2.54,1.74q30.71,30.66,61.39,61.37a11.68,11.68,0,0,1,1,1c.93,1.19,1.73,1.08,2.77,0,3.71-3.8,7.49-7.52,11.24-11.27,1.37-1.37,2.72-2.79,4.14-4.11.7-.65.8-1.16,0-1.79a13.48,13.48,0,0,1-1-1l-61.24-61.23C822.9,536.23,822.9,536.23,820.16,537.37Z" transform="translate(-626.83 -357.88)"/><path class="cls-3" d="M820.42,523.26c-.89.67-2.23.14-3,1.12.45,1,2.44.41,2.07,2.14-6.43,5.84-12.34,12.21-18.56,18.27-.51.5-1,1.15-1.81,1.12a8.28,8.28,0,0,1,2.65-4.3c.72-.67,2-1.07,1.76-2.45a1.41,1.41,0,0,1,.87-.67c.84-.22,2.09-.63,2.18-2.1s1.88-1,2.54-2c.48-.79.79-.73-.19-1.16-.63-.27,0-1.13-.73-1.18a2.6,2.6,0,0,0-.73-3.32c-5-5-10.12-10-15-15.09-.46-.48-1.34-.78-1-1.74,1.1-.79,2.69-.06,3.68-1.19,5.31,5.27,10.66,10.5,15.92,15.83,1,1,1.59,1.16,2.6,0C815.38,524.48,817.27,522.48,820.42,523.26Z" transform="translate(-626.83 -357.88)"/><path class="cls-4" d="M692.63,536.87c1.64-1.19,3.12.3,4.66.45a18.36,18.36,0,0,1,3.78,1.1l-1.34.17A28.54,28.54,0,0,1,692.63,536.87Z" transform="translate(-626.83 -357.88)"/><path class="cls-5" d="M867.66,624a2.44,2.44,0,0,1-.08,2.81A3.4,3.4,0,0,1,867.66,624Z" transform="translate(-626.83 -357.88)"/><path class="cls-6" d="M628.49,465.62l.19-1.17c.33.83.37,1.39-.09,1.89Z" transform="translate(-626.83 -357.88)"/><path class="cls-7" d="M805.14,436.52a125,125,0,0,1,.79,15.47c-1,40.33-30.59,75.44-70.28,83.26A87.67,87.67,0,0,1,632.8,469.13c-11.66-49.24,21.37-98.5,71.36-106.45,47.17-7.49,90.85,23,100.21,70a4.53,4.53,0,0,0,.29.74A5.29,5.29,0,0,1,805.14,436.52Z" transform="translate(-626.83 -357.88)"/><path class="cls-7" d="M820.16,537.37c2.45-2.13,2.44-2.12,4.76.19q31.26,31.28,62.55,62.51c1.15,1.15,1.47,1.72.09,3-5.28,5.07-10.43,10.27-15.53,15.53-1.2,1.24-1.74,1.06-2.87-.07q-31.63-31.76-63.36-63.43c-.47-.46-1-.89-1.48-1.33,0-.88.77-1.22,1.26-1.72Q812.85,544.71,820.16,537.37Z" transform="translate(-626.83 -357.88)"/><path class="cls-7" d="M791.41,511.87c5.53,5.55,11,11.16,16.62,16.63,1.35,1.31,1.82,2.26.16,3.52-2.62,2.58-5.28,5.13-7.86,7.75-.76.77-1.18.91-2,.05-5.5-5.58-11.08-11.1-16.61-16.66-.34-.35-1.24-.67-.48-1.4C784.61,518.47,787.7,514.84,791.41,511.87Z" transform="translate(-626.83 -357.88)"/><path class="cls-8" d="M799.11,545.91q9-8.88,17.91-17.78a5.12,5.12,0,0,1,2.46-1.61c3.19,1.55,3.48,3.08,1.06,5.51-.75.75-1.46,1.54-2.19,2.31L800.5,552.07c-1.53,1.51-2.53,1.49-3.93.1a2.2,2.2,0,0,1-.08-3.5C797.37,547.76,798.24,546.83,799.11,545.91Z" transform="translate(-626.83 -357.88)"/><path class="cls-9" d="M783.31,513.48a107.19,107.19,0,0,0,10.5-12.91c1.09,1.52,1.12,2.31-.07,3.51-3.29,3.32-6.65,6.58-10,9.87C783.36,514,783.19,513.9,783.31,513.48Z" transform="translate(-626.83 -357.88)"/><path class="cls-10" d="M782.14,515.58c-3,3-6,6.08-9,9.11a2.57,2.57,0,0,1-3.74.26,116.65,116.65,0,0,0,12.25-9.84C782.09,515,782.23,515.17,782.14,515.58Z" transform="translate(-626.83 -357.88)"/><path class="cls-11" d="M721.58,537.63h-7.14v-.2h7.1Z" transform="translate(-626.83 -357.88)"/><path class="cls-3" d="M805.14,436.52a10,10,0,0,1-.48-3.11c.1-.49-.08-1.07.79-1.57C804.59,433.52,806.22,435,805.14,436.52Z" transform="translate(-626.83 -357.88)"/><path class="cls-12" d="M782.14,515.58l-.48-.47,1.65-1.63.45.47A5,5,0,0,1,782.14,515.58Z" transform="translate(-626.83 -357.88)"/><path class="cls-8" d="M897.44,604.21a2.83,2.83,0,0,1-1,2.44Q886.07,617,875.68,627.41c-1.45,1.44-2.43,1.43-3.77.1s-1.4-2.33,0-3.77q10.44-10.47,20.9-20.91c.76-.75,1.62-1.32,2.68-.69S897.39,603.46,897.44,604.21Z" transform="translate(-626.83 -357.88)"/><path class="cls-8" d="M881.7,627,896,612.85C898,619.55,890.19,628.85,881.7,627Z" transform="translate(-626.83 -357.88)"/><path class="cls-13" d="M710,523.57a68.91,68.91,0,0,1-29.71-9.77c-19.83-12-31.76-29.49-35.91-52.29a12.28,12.28,0,0,1-.1-1.6.74.74,0,0,0,.2-.51,6.27,6.27,0,0,1,0-.75c-.12.19,0,.49-.31.6A56.72,56.72,0,0,1,644,440c4.93-31.41,22.49-52.35,52.68-62.43,10-3.34,20.39-3.88,30.85-2.67a3.67,3.67,0,0,1,.75.25c-.16.24-.33.35-.54.05,0,.28.27.24.45.23.39,0,.79.09,1.15-.15a62.8,62.8,0,0,1,22,6.74c25.47,13.29,39.35,34.34,41.73,63,0,.67,0,1.34,0,2a9.2,9.2,0,0,0,0,4,68.49,68.49,0,0,1-8.44,33c-13.1,23.9-33.4,37.11-60.5,39.89-.93.09-1.87,0-2.81.05C717.48,523.81,713.73,523.46,710,523.57Z" transform="translate(-626.83 -357.88)"/><path class="cls-3" d="M710,523.57c1-1.16,2.33-.39,3.4-.29,2.62.25,5.29,0,7.87.69A51.2,51.2,0,0,1,710,523.57Z" transform="translate(-626.83 -357.88)"/><path class="cls-14" d="M793,451a4.8,4.8,0,0,1,0-4C793,448.36,793,449.7,793,451Z" transform="translate(-626.83 -357.88)"/><path class="cls-15" d="M729.3,375.3c-.33.41-.79.35-1.23.33-.14,0-.43,0-.32-.23,0-.12.32-.15.49-.23Z" transform="translate(-626.83 -357.88)"/><path class="cls-16" d="M644.17,459.25l.25-1.24c.25.87.42,1.42-.17,1.9Z" transform="translate(-626.83 -357.88)"/><path class="cls-16" d="M790.55,458.21l.07-.71c.51.44.41,1,.29,1.57C790.42,458.91,790.72,458.47,790.55,458.21Z" transform="translate(-626.83 -357.88)"/></svg>